<mxfile host="app.diagrams.net" modified="2024-01-13T04:31:41.526Z" agent="Mozilla/5.0 (X11; Linux x86_64) AppleWebKit/537.36 (KHTML, like Gecko) Chrome/120.0.0.0 Safari/537.36" version="22.1.18" etag="5PiKYC9W3QvH2YCX7hmE" type="github">
  <diagram name="Page-1" id="yhnGaxcN0KZS2rJZzO3y">
    <mxGraphModel>
      <root>
        <mxCell id="0" />
        <mxCell id="1" parent="0" />
      </root>
    </mxGraphModel>
  </diagram>
</mxfile>
